<svg width="51" height="64" viewBox="0 0 51 64" fill="none" xmlns="http://www.w3.org/2000/svg">
<path d="M9.76425 0C22.6949 0 35.6244 0 48.555 0C50.3784 0.62125 51.006 1.9425 51.0011 3.83625C50.9665 17.41 50.9825 30.9838 50.9825 44.5563C50.9825 44.8263 50.9924 45.0988 50.9727 45.3675C50.8751 46.7212 50.208 47.65 48.9652 48.185C48.7428 48.2812 48.5143 48.535 48.4327 48.7675C47.4481 51.5938 47.4531 54.4313 48.3883 57.2738C48.5081 57.6388 48.6922 57.8438 49.0566 57.9863C50.2673 58.4575 50.9986 59.6075 50.9776 60.9113C50.9566 62.2325 50.2067 63.3237 48.9936 63.8037C48.8441 63.8625 48.7008 63.9338 48.5538 63.9987C35.5824 63.9987 22.6109 63.9987 9.63948 63.9987C9.50606 63.9587 9.37511 63.8988 9.23798 63.88C4.04941 63.145 0.0171445 58.5263 0.0109676 53.2163C-0.00632765 39.155 -0.00138615 25.0938 0.0134383 11.0337C0.0183798 6.49375 2.74979 2.4525 6.9303 0.7925C7.8383 0.4325 8.81796 0.25875 9.76425 0ZM9.86432 59.545C9.71607 59.5137 9.61477 59.4963 9.51471 59.4712C6.39539 58.6862 4.32119 56.1025 4.3286 53.015C4.33601 49.9575 6.39786 47.4012 9.50729 46.6387C9.8742 46.5487 9.89644 46.3662 9.8952 46.0725C9.88903 44.5725 9.88779 43.0725 9.89397 41.5725C9.89767 40.8525 10.2658 40.4225 10.8403 40.4338C11.3937 40.445 11.7384 40.8587 11.7421 41.5462C11.7495 42.6925 11.7446 43.8375 11.7446 44.9837C11.7446 45.4738 11.7446 45.9638 11.7446 46.49C12.0015 46.49 12.1634 46.49 12.3264 46.49C24.0822 46.49 35.8381 46.49 47.5951 46.4888C48.7119 46.4888 49.1282 46.0725 49.1282 44.9412C49.1307 31.1087 49.1307 17.2763 49.1282 3.44375C49.1282 2.26125 48.7366 1.875 47.563 1.875C35.848 1.875 24.1329 1.875 12.4178 1.875C12.2016 1.875 11.9867 1.875 11.7446 1.875C11.7446 2.2225 11.7446 2.47125 11.7446 2.72C11.7446 13.9488 11.7446 25.1775 11.7446 36.4062C11.7446 36.615 11.7569 36.825 11.7359 37.0312C11.6816 37.5588 11.3937 37.8687 10.8625 37.905C10.3585 37.9387 9.96438 37.5875 9.90262 37.0525C9.87914 36.8463 9.8915 36.6362 9.8915 36.4287C9.8915 25.2212 9.8915 14.0138 9.8915 2.805C9.8915 2.53875 9.8915 2.2725 9.8915 1.95875C9.59995 1.99875 9.37511 2.01375 9.15645 2.06125C4.86352 2.98 1.86774 6.6875 1.86403 11.1375C1.85415 25.115 1.85662 39.0938 1.86032 53.0725C1.86032 55.305 2.59043 57.2825 4.03458 58.9675C5.56521 60.7512 7.4961 61.7875 9.86308 62.0638C9.86432 61.205 9.86432 60.3987 9.86432 59.545ZM46.5784 57.75C46.4635 57.3175 46.3227 56.9825 46.2943 56.6375C46.2375 55.9637 45.8977 55.8537 45.28 55.855C33.9776 55.8763 22.6752 55.8713 11.3715 55.87C11.1454 55.87 10.9132 55.8913 10.6933 55.8512C10.2102 55.7625 9.9125 55.4487 9.90509 54.9525C9.89767 54.4263 10.1979 54.0975 10.7143 54.0125C10.9354 53.9762 11.1664 53.9963 11.3925 53.9963C22.6134 53.9963 33.8331 53.9963 45.054 53.9963C45.3122 53.9963 45.5691 53.9963 45.815 53.9963C45.815 53.3225 45.815 52.7475 45.815 52.1213C45.5382 52.1213 45.2949 52.1213 45.0527 52.1213C37.9913 52.1213 30.9299 52.1213 23.8673 52.12C23.6215 52.12 23.3645 52.1387 23.131 52.0775C22.6566 51.9538 22.3898 51.6113 22.4256 51.1138C22.4614 50.6213 22.7542 50.315 23.2521 50.255C23.4547 50.2313 23.6635 50.2463 23.8698 50.2463C31.0349 50.2463 38.1989 50.2463 45.3641 50.2463C45.6037 50.2463 45.8421 50.2463 46.0905 50.2463C46.2548 49.5875 46.4018 49 46.5599 48.3662C46.2992 48.3662 46.1152 48.3662 45.9311 48.3662C34.2988 48.3662 22.6665 48.3662 11.0342 48.3662C10.8489 48.3662 10.6636 48.3662 10.4783 48.375C7.81854 48.515 5.75052 51.1862 6.25208 53.8312C6.69682 56.1737 8.61906 57.7475 11.0651 57.7487C22.6974 57.7525 34.3297 57.75 45.962 57.75C46.1473 57.75 46.3314 57.75 46.5784 57.75ZM11.7619 62.125C12.0448 62.125 12.2671 62.125 12.4895 62.125C24.1403 62.125 35.7899 62.125 47.4407 62.125C47.626 62.125 47.8126 62.1338 47.9966 62.1188C48.6464 62.0613 49.0949 61.5825 49.1221 60.93C49.1554 60.1287 48.6044 59.6275 47.6693 59.6275C35.8751 59.6262 24.0798 59.6262 12.2857 59.6275C12.1102 59.6275 11.936 59.6525 11.7606 59.6662C11.7619 60.4975 11.7619 61.265 11.7619 62.125Z" fill="white"/>
<path d="M32.3767 20.7181C31.0821 20.7181 29.8714 20.7181 28.6607 20.7181C27.5081 20.7181 26.3555 20.7306 25.2029 20.7131C24.7248 20.7056 24.5346 20.9006 24.5445 21.3794C24.5618 22.2544 24.5581 23.1294 24.5469 24.0031C24.5408 24.4469 24.7137 24.6506 25.1696 24.6381C25.8898 24.6194 26.61 24.6269 27.3302 24.6356C28.1555 24.6444 28.494 24.9744 28.4977 25.8156C28.5063 28.2944 28.5076 30.7719 28.4964 33.2506C28.4927 34.0706 28.1678 34.3806 27.3661 34.3869C26.4605 34.3944 25.555 34.4006 24.6495 34.3844C24.1566 34.3756 23.9367 34.5694 23.9515 35.0869C23.975 35.9406 23.9762 36.7956 23.9515 37.6481C23.9354 38.1719 24.1652 38.3469 24.6532 38.3456C28.5224 38.3381 32.3928 38.3394 36.262 38.3444C36.724 38.3456 36.9439 38.1569 36.9353 37.6744C36.9217 36.7994 36.9229 35.9244 36.9353 35.0506C36.9415 34.5656 36.7129 34.3806 36.2534 34.3869C35.3268 34.3981 34.4003 34.3956 33.475 34.3869C32.714 34.3794 32.3879 34.0519 32.3792 33.2819C32.3693 32.4281 32.3681 31.5744 32.3805 30.7206C32.3903 30.0619 32.7894 29.6319 33.3366 29.6531C33.8654 29.6731 34.215 30.0831 34.2261 30.7206C34.2372 31.2981 34.2286 31.8756 34.2286 32.5144C34.9673 32.5144 35.6406 32.5069 36.3139 32.5156C37.8383 32.5356 38.7711 33.4831 38.7822 35.0219C38.7896 35.9381 38.7921 36.8544 38.7809 37.7706C38.7636 39.2356 37.8297 40.2056 36.3781 40.2106C32.4052 40.2256 28.4334 40.2269 24.4605 40.2094C23.0373 40.2031 22.1194 39.2344 22.1071 37.7994C22.0984 36.8419 22.0984 35.8831 22.1071 34.9256C22.1207 33.4944 23.0435 32.5506 24.4666 32.5169C25.1646 32.5006 25.8626 32.5144 26.6038 32.5144C26.6038 30.5031 26.6038 28.5381 26.6038 26.5069C26.0442 26.5069 25.5142 26.5156 24.9855 26.5056C23.6661 26.4806 22.7371 25.5669 22.7038 24.2256C22.6778 23.1844 22.6766 22.1431 22.7038 21.1019C22.7383 19.7856 23.6402 18.8656 24.9435 18.8531C27.3722 18.8294 29.801 18.8319 32.2297 18.8506C33.4392 18.8606 34.2162 19.6844 34.2236 20.9194C34.2348 22.6269 34.231 24.3356 34.2236 26.0431C34.2212 26.7369 33.879 27.1319 33.3107 27.1369C32.7437 27.1419 32.3805 26.7406 32.3767 26.0594C32.3706 24.3144 32.3767 22.5681 32.3767 20.7181Z" fill="white"/>
<path d="M34.6063 12.4177C34.6025 14.7452 32.7495 16.6264 30.4566 16.6314C28.1329 16.6364 26.2526 14.7402 26.2588 12.3964C26.265 10.0814 28.1267 8.18895 30.4158 8.17395C32.7211 8.15645 34.6112 10.0702 34.6063 12.4177ZM32.7544 12.4139C32.7569 11.1189 31.734 10.0639 30.4579 10.0464C29.1706 10.0289 28.0946 11.1202 28.1094 12.4302C28.1242 13.7252 29.1595 14.7577 30.4443 14.7564C31.7253 14.7552 32.7507 13.7152 32.7544 12.4139Z" fill="white"/>
<path d="M14.9108 50.2455C16.2067 50.2455 17.5038 50.2417 18.7997 50.2467C19.5286 50.2492 19.9289 50.5892 19.9252 51.1842C19.9202 51.7692 19.5101 52.1167 18.7824 52.118C16.2104 52.123 13.6383 52.123 11.0663 52.118C10.3424 52.1167 9.91492 51.768 9.89886 51.198C9.8828 50.6055 10.3238 50.248 11.0836 50.2467C12.3585 50.2442 13.6346 50.2455 14.9108 50.2455Z" fill="white"/>
</svg>
