<svg width="64" height="64" viewBox="0 0 64 64" fill="none" xmlns="http://www.w3.org/2000/svg">
<path d="M55.7446 64.0009C55.4296 63.7359 55.0929 63.4909 54.8012 63.2009C49.4946 57.9026 44.1914 52.6027 38.8981 47.2911C38.5731 46.9661 38.2682 46.8378 37.8065 46.8861C35.5232 47.1278 33.4332 46.5645 31.5233 45.3028C30.6716 44.7411 29.8066 44.1995 28.9716 43.6145C28.6783 43.4095 28.4483 43.4112 28.1966 43.6212C27.83 43.9278 27.4466 44.2178 27.11 44.5545C20.9051 50.7511 14.7068 56.9526 8.50526 63.1525C8.3136 63.3442 8.12694 63.5442 7.90861 63.6992C7.41028 64.0525 6.72696 63.9775 6.3103 63.5492C5.89197 63.1175 5.84197 62.4442 6.21196 61.9492C6.3603 61.7509 6.54363 61.5776 6.72029 61.4009C11.1519 56.966 15.5852 52.5327 20.0218 48.1028C20.1984 47.9261 20.4084 47.7861 20.5317 47.6861C17.5101 44.6645 14.5568 41.7112 11.5669 38.7229C11.5186 38.7696 11.3536 38.9179 11.1969 39.0746C8.29527 41.9745 5.39364 44.8778 2.49035 47.7778C2.31369 47.9528 2.13536 48.1344 1.92869 48.2694C1.41537 48.6028 0.810378 48.5211 0.388718 48.0928C-0.0279425 47.6694 -0.0962747 47.0494 0.24372 46.5495C0.382051 46.3445 0.565382 46.1678 0.742046 45.9928C5.05698 41.6762 9.37192 37.3613 13.6902 33.048C13.9252 32.813 14.1785 32.5963 14.5085 32.2947C13.9502 31.753 13.4619 31.248 12.9402 30.7814C10.4202 28.5281 11.2652 24.6348 14.1552 23.5565C14.2102 23.5365 14.2518 23.4815 14.3152 23.4298C13.8268 22.4182 13.6702 21.3565 13.9985 20.2782C14.5185 18.5699 15.6735 17.5266 17.4485 17.2532C17.9318 17.1782 18.0818 17.0182 18.1368 16.5332C18.3418 14.7216 19.8918 13.22 21.7401 13.0016C22.1234 12.9566 22.3101 12.865 22.3634 12.4283C22.57 10.7533 23.4917 9.57667 25.0667 8.99002C26.6367 8.40502 28.125 8.66002 29.3699 9.79667C30.2583 10.6083 31.0533 11.5216 32.0066 12.51C32.6849 11.7816 33.2649 11.135 33.8715 10.5133C34.6715 9.69334 35.4832 8.88502 36.3015 8.08336C37.5948 6.81672 39.1248 6.40172 40.8314 7.02838C42.5348 7.65337 43.4431 8.94835 43.6197 10.7533C43.6264 10.8133 43.6431 10.8717 43.6597 10.9533C46.2047 11.2316 47.618 12.6616 47.908 15.1899C50.608 15.6449 51.7096 16.7466 52.1546 19.4399C52.4696 19.4965 52.7979 19.5349 53.1163 19.6132C56.2295 20.3832 57.3995 24.1665 55.2512 26.5498C54.6246 27.2447 53.9479 27.8964 53.2696 28.5447C52.9929 28.8081 52.9146 29.0164 53.0963 29.3947C53.8946 31.068 54.2746 32.8497 54.3729 34.6996C54.3862 34.953 54.5462 35.248 54.7312 35.433C57.5462 38.2729 60.3795 41.0962 63.2011 43.9295C63.4911 44.2212 63.7294 44.5611 63.9928 44.8795C63.9928 45.1295 63.9928 45.3795 63.9928 45.6295C63.1961 46.7195 62.5178 46.7745 61.5595 45.8178C60.2345 44.4945 58.9145 43.1695 57.4479 41.6995C57.2795 41.9495 57.1529 42.1695 56.9929 42.3612C56.8195 42.5678 56.6195 42.7545 56.4212 42.9362C55.8329 43.4728 55.1512 43.4912 54.6346 42.9928C54.1079 42.4845 54.1129 41.7545 54.6712 41.1612C55.0229 40.7879 55.4046 40.4412 55.7179 40.1362C54.7712 39.1829 53.8813 38.2879 53.0279 37.4313C49.648 40.8129 46.238 44.2228 42.9214 47.5394C43.7781 48.3961 44.6814 49.2994 45.6447 50.2611C45.8864 49.9977 46.168 49.6627 46.4764 49.3544C47.133 48.6978 47.858 48.6328 48.403 49.1594C48.953 49.6911 48.8913 50.4627 48.228 51.1327C47.9113 51.4527 47.5713 51.7494 47.1247 52.1677C47.4147 52.3794 47.6213 52.4927 47.783 52.6527C50.7613 55.6227 53.7363 58.5976 56.7095 61.5742C57.6645 62.5309 57.5995 63.2342 56.4962 64.0009C56.2446 64.0009 55.9946 64.0009 55.7446 64.0009ZM33.8149 14.1666C33.9715 14.3416 34.1149 14.4933 34.2482 14.6516C35.3315 15.9466 35.5982 17.4116 34.9982 18.9732C34.4065 20.5148 33.2399 21.4232 31.5899 21.6315C31.1699 21.6848 31.0483 21.8448 31.0016 22.2415C30.7749 24.1348 29.27 25.6714 27.4216 25.8631C26.94 25.9131 26.815 26.0948 26.7533 26.5348C26.5267 28.1314 25.625 29.2397 24.15 29.853C23.68 30.0497 23.1534 30.1097 22.7834 30.2014C22.4534 31.0297 22.2684 31.8747 21.8117 32.533C21.3451 33.2063 20.6134 33.6946 20.0418 34.223C22.3501 36.5313 24.735 38.9146 27.1467 41.3262C28.2466 40.6995 29.4916 40.4179 30.8049 40.3995C35.6682 40.3295 39.7848 38.5146 43.2097 35.0863C46.493 31.7997 49.778 28.5164 53.0629 25.2314C53.2096 25.0848 53.3629 24.9381 53.4829 24.7698C53.9096 24.1765 53.9846 23.5398 53.6246 22.8931C53.2696 22.2532 52.6946 21.8782 51.9763 22.0182C51.5196 22.1065 51.0313 22.3615 50.693 22.6831C49.393 23.9148 48.153 25.2098 46.873 26.4614C46.6447 26.6864 46.353 26.9047 46.053 26.9847C45.4997 27.1347 45.0264 26.9231 44.7214 26.4164C44.4081 25.8964 44.4947 25.3314 44.9914 24.8298C46.3097 23.4965 47.6447 22.1798 48.963 20.8482C49.7896 20.0132 49.8296 18.9832 49.0897 18.2465C48.363 17.5249 47.3163 17.5732 46.4847 18.3915C45.5197 19.3415 44.5697 20.3065 43.6097 21.2615C43.1814 21.6882 42.7681 22.1315 42.3081 22.5215C41.8181 22.9348 41.0964 22.8665 40.6631 22.4231C40.2431 21.9948 40.1898 21.3215 40.5531 20.8198C40.6748 20.6532 40.8281 20.5082 40.9748 20.3615C42.2248 19.1082 43.4764 17.8549 44.7314 16.6049C45.2214 16.1182 45.4864 15.5549 45.323 14.8599C45.0097 13.5266 43.4481 13.045 42.4264 13.9933C41.5264 14.8283 40.7098 15.7549 39.7915 16.5699C39.4698 16.8549 38.9331 17.0999 38.5398 17.0432C38.1832 16.9916 37.7915 16.5599 37.5898 16.1982C37.3298 15.7332 37.5932 15.2699 37.9498 14.9083C38.8565 13.9883 39.7931 13.0966 40.6731 12.1533C41.3264 11.4533 41.2731 10.4433 40.6231 9.78334C39.9715 9.12001 38.9365 9.03168 38.2581 9.69167C36.7632 11.14 35.3215 12.64 33.8149 14.1666ZM40.8531 45.8211C41.0298 45.7145 41.0714 45.6995 41.0998 45.6711C44.6047 42.1679 48.1113 38.6662 51.6113 35.158C51.7213 35.048 51.8546 34.8846 51.8496 34.7513C51.8063 33.4197 51.568 32.128 50.9296 30.6964C50.718 30.9964 50.6096 31.208 50.4496 31.368C48.4963 33.3297 46.553 35.3046 44.5714 37.2379C41.5648 40.1696 37.9765 41.9779 33.8249 42.6512C33.3966 42.7212 32.9699 42.7862 32.4616 42.8662C34.1332 44.1945 36.2765 44.7295 38.2548 44.3062C38.9648 44.1545 39.5215 44.2962 39.9865 44.8461C40.2681 45.1811 40.5664 45.5011 40.8531 45.8211ZM13.6152 36.7996C16.5418 39.7296 19.4818 42.6712 22.3484 45.5411C23.215 44.6745 24.1167 43.7745 24.95 42.9428C22.0601 40.0529 19.1184 37.1113 16.2085 34.1996C15.3535 35.0563 14.4618 35.9513 13.6152 36.7996ZM22.4551 27.7614C23.2467 27.6714 23.8817 27.2881 24.16 26.6298C24.4667 25.9031 24.3367 25.2298 23.7884 24.6748C22.3117 23.1781 20.8317 21.6848 19.3284 20.2182C18.5718 19.4782 17.5018 19.5099 16.8168 20.2232C16.1601 20.9082 16.1668 21.9632 16.8835 22.6931C18.3418 24.1781 19.8084 25.6548 21.3051 27.0997C21.6151 27.3981 22.0684 27.5447 22.4551 27.7614ZM32.9166 17.3366C32.6699 16.9232 32.4899 16.4449 32.1632 16.1066C30.7633 14.6533 29.3266 13.235 27.8916 11.815C27.1067 11.0383 26.0417 11.005 25.3317 11.705C24.62 12.4066 24.645 13.4733 25.4133 14.2649C26.065 14.9366 26.735 15.5916 27.3983 16.2532C28.2083 17.0616 29.0083 17.8799 29.8316 18.6749C30.3983 19.2215 31.0783 19.3315 31.7899 19.0082C32.4599 18.7082 32.7799 18.1499 32.9166 17.3366ZM22.5851 15.4366C21.5934 15.4683 21.0517 15.7949 20.7351 16.4599C20.4201 17.1232 20.5584 17.8816 21.1351 18.4649C22.5834 19.9299 24.0384 21.3882 25.505 22.8348C26.2633 23.5831 27.3216 23.6098 28.02 22.9365C28.745 22.2382 28.745 21.1632 27.9716 20.3765C26.5283 18.9065 25.0767 17.4449 23.5934 16.0166C23.27 15.7082 22.7967 15.5549 22.5851 15.4366ZM18.0551 31.903C19.0468 31.888 19.5934 31.5597 19.9051 30.8997C20.2418 30.1847 20.1134 29.5064 19.5768 28.9447C18.7301 28.0597 17.8618 27.1931 16.9818 26.3414C16.1901 25.5731 15.1368 25.5731 14.4268 26.3081C13.7569 26.9997 13.7869 28.0581 14.5285 28.8231C15.3518 29.673 16.1768 30.5247 17.0485 31.3247C17.3801 31.628 17.8435 31.7863 18.0551 31.903Z" fill="white"/>
<path d="M15.6193 0C16.2926 0.366661 16.5376 0.923319 16.5076 1.69331C16.4593 2.91662 16.4993 4.1416 16.4926 5.36659C16.4876 6.26324 15.9843 6.81656 15.2126 6.79823C14.4693 6.78157 14.001 6.23824 13.996 5.36659C13.9893 4.1416 14.0293 2.91496 13.981 1.69331C13.951 0.923319 14.1943 0.366661 14.8693 0C15.1193 0 15.3693 0 15.6193 0Z" fill="white"/>
<path d="M49.1191 0C49.7924 0.366661 50.0374 0.924986 50.0074 1.69331C49.9591 2.91662 50.0007 4.1416 49.9924 5.36659C49.9874 6.26157 49.4824 6.81656 48.7124 6.79823C47.9691 6.7799 47.5008 6.23824 47.4974 5.36659C47.4908 4.1416 47.5308 2.91496 47.4824 1.69331C47.4524 0.923319 47.6941 0.366661 48.3708 0.00166664C48.6191 0 48.8691 0 49.1191 0Z" fill="white"/>
<path d="M63.9947 15.6237C63.6263 16.2937 63.0697 16.542 62.3014 16.512C61.078 16.4637 59.8514 16.5037 58.6264 16.497C57.7331 16.492 57.1764 15.9853 57.1948 15.217C57.2131 14.4754 57.7581 14.0054 58.6281 14.002C59.8531 13.9954 61.0797 14.037 62.303 13.987C63.073 13.9554 63.628 14.2037 63.9963 14.8754C63.9947 15.1237 63.9947 15.3737 63.9947 15.6237Z" fill="white"/>
<path d="M61.7811 3.66195C61.6911 3.81695 61.5644 4.18361 61.3194 4.4336C59.4394 6.34524 57.5395 8.23855 55.6345 10.1252C55.0495 10.7052 54.3178 10.7252 53.7995 10.2235C53.2645 9.70519 53.2845 8.95354 53.8895 8.34521C55.7778 6.44191 57.6811 4.55194 59.5744 2.65363C60.0011 2.2253 60.5011 2.08531 61.0527 2.3203C61.5311 2.5203 61.7811 2.91696 61.7811 3.66195Z" fill="white"/>
<path d="M10.735 9.36051C10.435 9.7505 10.2467 10.2105 9.91335 10.3705C9.57836 10.5322 9.0967 10.4272 8.68837 10.3738C8.53171 10.3538 8.39004 10.1605 8.25838 10.0305C6.41841 8.19552 4.5751 6.36555 2.75513 4.51058C2.50846 4.26058 2.3118 3.90226 2.23347 3.56059C2.1168 3.04893 2.35347 2.54894 2.84179 2.39228C3.23012 2.26728 3.70345 2.37394 4.13344 2.42894C4.2701 2.44728 4.39177 2.62561 4.5101 2.74227C6.34841 4.57725 8.19338 6.40722 10.015 8.26052C10.2917 8.54219 10.4583 8.92885 10.735 9.36051Z" fill="white"/>
<path d="M3.39165 16.5002C2.70666 16.5002 2.02167 16.5118 1.33668 16.4968C0.541693 16.4802 -0.00496591 15.9552 3.40157e-05 15.2402C0.00503394 14.5269 0.553359 14.0102 1.35501 14.0035C2.72499 13.9919 4.09497 13.9902 5.46495 14.0035C6.27161 14.0119 6.79993 14.5285 6.79493 15.2568C6.78993 15.9835 6.25827 16.4802 5.44829 16.4952C4.76163 16.5102 4.07664 16.5002 3.39165 16.5002Z" fill="white"/>
<path d="M51.5307 44.8458C52.2207 44.8524 52.754 45.3891 52.7524 46.0757C52.7507 46.7541 52.2041 47.3124 51.5307 47.3207C50.8441 47.3291 50.2457 46.7257 50.2641 46.0441C50.2841 45.3691 50.8441 44.8391 51.5307 44.8458Z" fill="white"/>
</svg>
